# xmcd
# 
# Track frame offsets:
#     150
#     12300
#     29233
#     44565
#     57251
#     78058
#     96701
#     111297
#     130008
#     145758
#     157265
#     173678
#     185340
# 
# Disc length: 2636
# 
# Revision: 1
# Processed by: cddbd v1.5.2PL0 Copyright (c) Steve Scherf et al.
# Submitted via: fre:ac v1.0.31
# 
DISCID=b50a4a0d
DTITLE=FRED AND THE HEALERS - HAMMERBEATMATIC
DYEAR=2014
DGENRE=Blues
TTITLE0=DOYLE THE HUNTER
TTITLE1=A MAN FOR A DAY
TTITLE2=ROOTS AND ROSES
TTITLE3=BURNING
TTITLE4=DREAMS
TTITLE5=LOVERS BOOGIE
TTITLE6=AVD
TTITLE7=THE RIVER BED
TTITLE8=THE BEST THING
TTITLE9=LIKE A LEAF
TTITLE10=REMEDY
TTITLE11=SCRATCH MY BACK
TTITLE12=ANOTHER PLACE
EXTD=
EXTT0=
EXTT1=
EXTT2=
EXTT3=
EXTT4=
EXTT5=
EXTT6=
EXTT7=
EXTT8=
EXTT9=
EXTT10=
EXTT11=
EXTT12=
PLAYORDER=
